<svg xmlns="http://www.w3.org/2000/svg" width="28" height="20" viewBox="0 0 28 20"><g><g><path fill="#f8f8f8" d="M13.917 0l3.39 7.444c.06.13.185.218.327.23l9.94.799c.3.024.515-.283.39-.556l-2.592-5.683a.394.394 0 0 0-.289-.224zM2.69 2.23L.038 7.898c-.13.277.092.59.396.559l9.958-1.006a.394.394 0 0 0 .32-.232L13.918 0 2.975 2.01a.394.394 0 0 0-.286.22zm10.513 3.628L11.928 8.95a.394.394 0 0 1-.33.242l-8.454.742a.394.394 0 0 0-.359.403l.172 6.633a.394.394 0 0 0 .313.375l9.952 2.092c.486.103.99.102 1.475-.003l10.06-2.162a.394.394 0 0 0 .312-.385v-6.531c0-.2-.15-.369-.35-.391l-.506-.319a.394.394 0 0 0-.439.391v6.173l-9.814 1.887V6.008c0-.431-.594-.549-.758-.15z"/></g></g></svg>