<svg xmlns="http://www.w3.org/2000/svg" width="25" height="28" viewBox="0 0 25 28"><g><g><path fill="#f8f8f8" d="M19.072 18.856l-6.61 2.041-6.583-2.02.496-2.09c1.795.208 3.865.325 6.07.325 2.23 0 4.324-.12 6.135-.331zm-4.609 2.655l4.881-1.508.77 3.24zm-9.622 1.74l.766-3.226 4.857 1.49zm20.048-8.696c0-.653-1.193-1.249-3.155-1.701L19.722 2.122C19.722.95 18.772 0 17.6 0H7.296C6.124 0 5.174.95 5.174 2.122l-2.012 10.73C1.196 13.305 0 13.902 0 14.555c0 .857 2.052 1.616 5.202 2.08L2.677 27.273a.588.588 0 1 0 1.145.272l.704-2.965 7.938-2.452 7.964 2.443.706 2.974a.588.588 0 0 0 1.145-.272l-2.527-10.648c3.113-.465 5.137-1.218 5.137-2.07z"/></g></g></svg>