<svg xmlns="http://www.w3.org/2000/svg" width="34" height="20" viewBox="0 0 34 20"><g><g><path fill="#f8f8f8" d="M6.015 6.701L5.99 10H2.487l.547-2.76c.044-.462.262-.693.654-.693h2.327zM30 17.5c0-.676-.248-1.261-.743-1.757C28.76 15.248 28.176 15 27.5 15c-.676 0-1.261.248-1.757.743-.495.496-.743 1.081-.743 1.757 0 .676.248 1.261.743 1.757.496.495 1.081.743 1.757.743.676 0 1.261-.248 1.757-.743.495-.496.743-1.081.743-1.757zm-22 0c0-.676-.248-1.261-.743-1.757C6.76 15.248 6.176 15 5.5 15c-.676 0-1.261.248-1.757.743C3.248 16.24 3 16.824 3 17.5c0 .676.248 1.261.743 1.757.496.495 1.081.743 1.757.743.676 0 1.261-.248 1.757-.743C7.752 18.76 8 18.176 8 17.5zM33.309 0H10.988c-.507 0-.76.25-.76.748V10H8.846V6.126c0-.453-.23-.68-.692-.68H3.386c-.46 0-.852.137-1.175.408-.322.272-.506.635-.552 1.088v-.068l-.76 4.145v.068c-.6.091-.899.43-.899 1.02 0 .045.023.914.07 1.005L0 17h2.142v-.068c0-.815.311-1.518.933-2.107a3.107 3.107 0 0 1 2.212-.883c.852 0 1.589.294 2.211.883.622.59.933 1.292.933 2.107V17h16.032v-.068c0-.815.311-1.518.933-2.107a3.107 3.107 0 0 1 2.212-.883c.852 0 1.59.294 2.211.883.622.59.933 1.292.933 2.107V17H34V.748C34 .249 33.77 0 33.309 0z"/></g></g></svg>