<svg xmlns="http://www.w3.org/2000/svg" width="27" height="29" viewBox="0 0 27 29"><g><g><path fill="#f8f8f8" d="M26.74 19.847c-.602.625-.829-.134-1.177-.452-1.19-1.086-2.361-1.086-2.763.002-.11.29-.183.845-.057.919 1.628.982 1.379 1.683.023 2.86-.809.7-.775 2.205-2.532 1.926-.794-.123-.764.986-.856 1.58.282.703.304 1.33-.288 1.7-.593.368-1.064-.09-1.6-.392-1.198-.678-2.46-1.255-3.734-1.782-.514-.215-.801-.454-.712-1 .095-.565.447-.665 1.012-.645 1.8.065 3.584.364 5.413-.189.997-.302 1.84-1.013 1.873-1.623.065-1.019-.186-2.357-1.155-2.982-1.52-.982-2.732-2.739-4.286-3.154-2.296-.605-3.683-2.203-5.393-3.45-.95-.689-1.876-1.42-2.242-2.774-.763-2.791-2.8-3.35-5.049-1.571-.954.755-2.463-.307-3.072-1.638-.594-1.302.894-2.465-.05-3.676-.083-.104.399-.41.74-.455.94-.122 2.042.082 2.446-1.188.029-.08.445-.156.48-.105.885 1.345 1.526 1.046 2.04-.273C7.499 2.674 8.116.3 9.628.327c1.244.025 2.448-1.01 3.587.48.297.392 1.244.345 1.899.39 1.177.075.442.972.642 1.45.17.408.458 1.076-.508 1.104-.305.008-.66.153-.897.35-.478.396-1.748.303-1.502.839.553 1.191-.956 2.92 1.089 3.687 1.332.501 2.143 1.555 2.658 2.993.592 1.664 1.926 2.66 3.832 2.6.659-.02 1.368-.257.955.976-.235.704.734.747 1.23.966 1.327.595 2.649 1.214 3.765 2.166.467.4.926.94.363 1.52zM7.014 18.245c.099.675-.359 1.435-.253 2.107.258 1.726-1.196 2.07-2.09 2.122-1.347.079-1.041-1.17-.896-1.888 0-.641.184-1.217-.028-1.519-1.55-2.222.895-2.369 1.701-2.683 1.241-.484 1.436.969 1.566 1.86z"/></g></g></svg>