<svg xmlns="http://www.w3.org/2000/svg" width="22" height="27" viewBox="0 0 22 27"><g><g><path fill="#f8f8f8" d="M5.086 7.347c0-2.605 2.126-5.72 5.72-5.72s5.72 3.12 5.72 5.72v2.92H5.086zM12.05 19.13c-.171.126-.217.246-.217.446.006.897.006 1.788.006 2.686.017.371-.171.737-.503.902-.783.4-1.566-.16-1.566-.902v-.006c0-.897 0-1.794.006-2.692 0-.182-.04-.302-.2-.422-.811-.6-1.08-1.623-.674-2.52.394-.875 1.36-1.389 2.268-1.206 1.012.206 1.715 1.017 1.726 2.028 0 .703-.28 1.275-.846 1.686zM3.422 7.347v2.92h-.194c-1.223 0-3.228.995-3.228 2.217v12.212a2.22 2.22 0 0 0 2.217 2.217h17.04a2.22 2.22 0 0 0 2.217-2.217V12.479c0-1.223-2.053-2.217-3.276-2.217l-.057-2.92C18.141 2.713 14.56 0 10.806 0 7.052 0 3.422 2.719 3.422 7.347z"/></g></g></svg>